#!OML:ASF G:\JayActor3\Patient Classification 1\Patient 1\Session 5\male.ASF
:FULLY-SPECIFIED
:DEGREES
742
root 12.3136 14.0896 -4.83659 -140.39 87.216 -151.786
lowerback 33.7705 -2.11858 2.24057
upperback 7.02596 -1.14345 -0.395676
thorax -9.50896 -0.238544 -1.23841
lowerneck -5.91671 -0.594235 0.832734
upperneck -9.30983 -0.434661 2.41741
head -1.90786 -0.17569 0.612586
rclavicle -1.09332e-014 1.15295e-014
rhumerus -21.4677 5.67044 -85.7597
rradius 44.276
rwrist -5.20171
rhand -21.1653 -8.98103
rfingers 7.12502
rthumb 5.21474 -38.8969
lclavicle -1.09332e-014 1.15295e-014
lhumerus -24.4493 -9.21511 83.6018
lradius 42.1965
lwrist 24.2476
lhand -17.4967 10.8434
lfingers 7.12502
lthumb 8.75602 40.6417
rfemur -48.2542 -3.1627 27.9628
rtibia 88.9516
rfoot -34.0831 -8.42244
rtoes -12.3469
lfemur -68.9009 5.08885 -25.3364
ltibia 48.2473
lfoot -15.1609 5.03335
ltoes -18.26
743
root 12.4566 14.0758 -4.86117 -139.247 87.3623 -150.654
lowerback 33.5504 -2.08373 2.20584
upperback 6.98141 -1.13444 -0.429774
thorax -9.47406 -0.239204 -1.26103
lowerneck -6.00544 -0.57941 0.850316
upperneck -9.12251 -0.427844 2.387
head -1.83212 -0.171918 0.59871
rclavicle -8.74653e-015 3.97569e-015
rhumerus -21.5352 5.64134 -85.803
rradius 44.1438
rwrist -5.13389
rhand -21.1267 -8.98557
rfingers 7.12502
rthumb 5.25198 -38.9005
lclavicle -8.74653e-015 3.97569e-015
lhumerus -24.5008 -9.09651 83.5588
lradius 41.9876
lwrist 24.2115
lhand -17.4943 10.8606
lfingers 7.12502
lthumb 8.75837 40.6588
rfemur -47.8491 -3.22781 27.6783
rtibia 89.344
rfoot -33.732 -7.96982
rtoes -13.413
lfemur -68.7713 5.02589 -25.2703
ltibia 49.1075
lfoot -15.0808 5.16656
ltoes -18.0721
744
root 12.6014 14.0645 -4.88768 -137.945 87.5244 -149.361
lowerback 33.3381 -2.04953 2.16535
upperback 6.93615 -1.12799 -0.467538
thorax -9.44253 -0.240896 -1.28335
lowerneck -6.10824 -0.557885 0.867094
upperneck -8.94335 -0.411912 2.34696
head -1.75701 -0.163131 0.582049
rclavicle 2.78299e-015 1.2921e-014
rhumerus -21.5899 5.60469 -85.8388
rradius 44.0035
rwrist -5.059
rhand -21.0666 -8.99011
rfingers 7.12502
rthumb 5.31003 -38.9036
lclavicle 2.78299e-015 1.2921e-014
lhumerus -24.5601 -8.95364 83.5113
lradius 41.7942
lwrist 24.1707
lhand -17.5074 10.8681
lfingers 7.12502
lthumb 8.74576 40.667
rfemur -47.4228 -3.28053 27.3673
rtibia 89.7049
rfoot -33.3351 -7.53195
rtoes -14.4765
lfemur -68.7554 5.00722 -25.256
ltibia 50.1249
lfoot -15.0544 5.26307
ltoes -17.8354
745
root 12.7479 14.0552 -4.91572 -136.544 87.697 -147.955
lowerback 33.1481 -2.01421 2.11433
upperback 6.8937 -1.12192 -0.506653
thorax -9.41594 -0.242138 -1.3011
lowerneck -6.21635 -0.532923 0.889107
upperneck -8.78451 -0.390909 2.29672
head -1.68788 -0.151658 0.561542
rclavicle -9.93923e-015 7.15625e-015
rhumerus -21.6372 5.55467 -85.8634
rradius 43.8674
rwrist -4.97643
rhand -20.9994 -8.98348
rfingers 7.12502
rthumb 5.37494 -38.8953
lclavicle -9.93923e-015 7.15625e-015
lhumerus -24.621 -8.79919 83.4637
lradius 41.6196
lwrist 24.1244
lhand -17.5339 10.8616
lfingers 7.12502
lthumb 8.72011 40.6614
rfemur -46.9617 -3.32785 27.0343
rtibia 90.0317
rfoot -32.9151 -7.11021
rtoes -15.5096
lfemur -68.8447 5.01003 -25.2606
ltibia 51.2765
lfoot -15.0948 5.28857
ltoes -17.4974
746
root 12.8968 14.0472 -4.94487 -134.607 87.8716 -145.981
lowerback 33.0022 -1.97537 2.06251
upperback 6.85551 -1.10835 -0.544328
thorax -9.40114 -0.23917 -1.31928
lowerneck -6.31261 -0.509412 0.912829
upperneck -8.65905 -0.369576 2.25336
head -1.63168 -0.140205 0.543216
rclavicle -1.05356e-014 1.13307e-014
rhumerus -21.6843 5.48781 -85.8777
rradius 43.7407
rwrist -4.89463
rhand -20.9289 -8.96859
rfingers 7.12502
rthumb 5.443 -38.8787
lclavicle -1.05356e-014 1.13307e-014
lhumerus -24.6846 -8.64557 83.4167
lradius 41.4695
lwrist 24.0769
lhand -17.5722 10.847
lfingers 7.12502
lthumb 8.68316 40.6484
rfemur -46.4431 -3.36029 26.7003
rtibia 90.3217
rfoot -32.4868 -6.71526
rtoes -16.5019
lfemur -68.9918 5.02112 -25.2344
ltibia 52.5235
lfoot -15.2084 5.24245
ltoes -17.0112
